<?xml version="1.0" encoding="UTF-8"?>
<svg width="100px" height="100px" viewBox="0 0 100 100" version="1.1" xmlns="http://www.w3.org/2000/svg" xmlns:xlink="http://www.w3.org/1999/xlink">
    <defs>
        <linearGradient id="gradient" x1="0%" y1="0%" x2="100%" y2="100%">
            <stop offset="0%" stop-color="#3498db" />
            <stop offset="100%" stop-color="#9b59b6" />
        </linearGradient>
        <filter id="glow" x="-20%" y="-20%" width="140%" height="140%">
            <feGaussianBlur stdDeviation="3" result="blur" />
            <feComposite in="SourceGraphic" in2="blur" operator="over" />
        </filter>
    </defs>
    <g stroke="none" fill="none" fill-rule="evenodd">
        <circle fill="#f8f9fc" cx="50" cy="50" r="48" />
        <g transform="translate(20, 20)" fill="url(#gradient)" filter="url(#glow)">
            <!-- Stylized "Z" -->
            <path d="M0,10 L40,10 L40,18 L12,50 L40,50 L40,60 L0,60 L0,52 L28,20 L0,20 Z" />
            
            <!-- The "01" -->
            <path d="M45,10 C52.18,10 58,15.82 58,23 L58,47 C58,54.18 52.18,60 45,60 C37.82,60 32,54.18 32,47 L32,23 C32,15.82 37.82,10 45,10 Z M45,20 C43.34,20 42,21.34 42,23 L42,47 C42,48.66 43.34,50 45,50 C46.66,50 48,48.66 48,47 L48,23 C48,21.34 46.66,20 45,20 Z" />
            
            <!-- Tech line -->
            <rect x="0" y="65" width="60" height="5" />
        </g>
        
        <!-- Circuit lines -->
        <g stroke="url(#gradient)" stroke-width="1.5">
            <path d="M10,50 L20,50" />
            <path d="M80,50 L90,50" />
            <path d="M50,10 L50,20" />
            <path d="M50,80 L50,90" />
            <path d="M25,25 L35,35" />
            <path d="M65,65 L75,75" />
            <path d="M25,75 L35,65" />
            <path d="M65,35 L75,25" />
        </g>
        
        <!-- Dots at circuit intersections -->
        <circle fill="#3498db" cx="20" cy="50" r="2" />
        <circle fill="#9b59b6" cx="80" cy="50" r="2" />
        <circle fill="#3498db" cx="50" cy="20" r="2" />
        <circle fill="#9b59b6" cx="50" cy="80" r="2" />
        <circle fill="#3498db" cx="35" cy="35" r="2" />
        <circle fill="#9b59b6" cx="75" cy="75" r="2" />
        <circle fill="#3498db" cx="35" cy="65" r="2" />
        <circle fill="#9b59b6" cx="75" cy="25" r="2" />
    </g>
</svg> 